<svg width="24" height="24" viewBox="0 0 24 24" fill="none" xmlns="http://www.w3.org/2000/svg">
<path d="M5.9054 10.2909C6.22287 11.3435 6.60717 12.3309 7.02489 13.2833C7.74337 14.9891 8.22793 15.8914 8.8978 17.0109C9.71654 18.3476 10.6203 19.8696 12.1074 20.8554C13.1935 21.5739 14.515 21.9415 15.7849 21.9415C17.5743 21.9415 19.1115 21.1562 20.0988 20.2357C21.0679 19.3334 22.3226 17.5942 22.3226 14.2008C22.3226 13.0311 22.8406 12.0271 23.2249 11.2251C23.2249 11.2084 23.2416 11.1749 23.275 11.1081C23.4254 10.7739 23.6092 10.3395 23.6092 9.90506C23.6092 9.5876 23.5256 9.22 23.3084 8.90253C22.9743 8.33443 22.3727 8.13392 21.8198 8.13392C20.5332 8.13392 19.6462 9.0362 19.195 9.95671L19.0446 10.2575C18.8608 9.99013 18.677 9.70608 18.5267 9.45544C18.0588 8.63671 17.7915 8.08532 17.5575 7.38203C17.3738 6.83063 17.2234 6.1957 17.1231 5.6762C16.8391 4.03722 16.3712 3.50253 15.6011 3.30203C15.033 3.15165 14.3646 3.26861 13.8786 3.58608C13.5459 2.83418 12.9778 2.5 12.2244 2.5C11.155 2.5 10.1844 3.20177 10.1844 4.38962C10.1844 4.54 10.2011 4.69038 10.2178 4.87418C10.0841 4.84076 9.93375 4.82405 9.78337 4.82405C8.63046 4.82405 7.77679 5.62608 7.77679 6.71367C7.77679 6.9643 7.81021 7.24835 7.89375 7.58253C7.7935 7.56582 7.69325 7.56582 7.59299 7.56582C7.02489 7.59924 6.50692 7.81646 6.1378 8.2676C5.77173 8.70203 5.62135 9.37038 5.9054 10.2909Z" fill="white"/>
<path d="M6.85785 9.99005C6.70747 9.5055 6.72418 9.1379 6.90798 8.90398C7.09178 8.68676 7.34241 8.58651 7.64317 8.5698C8.16114 8.55309 8.36165 8.92069 8.66241 9.87309C8.84621 10.4746 9.2138 11.345 9.43102 11.8295C9.71507 12.4144 10.1161 13.1997 10.2999 13.4685C10.4503 13.7025 10.5839 13.7693 10.7343 13.7693C11.0017 13.7693 11.2022 13.6189 11.2022 13.3516C11.2022 13.2012 11.0518 12.9506 10.9682 12.8002C10.8179 12.5161 10.5004 11.948 10.2832 11.4635C10.0492 10.9288 9.7819 10.2604 9.56469 9.65739C9.43102 9.30651 9.28064 8.80524 9.13026 8.30398C8.89633 7.53537 8.77937 7.06752 8.77937 6.71512C8.77937 6.18043 9.18039 5.82955 9.7819 5.82955C10.2163 5.82955 10.5004 6.04676 10.6842 6.83208C10.8346 7.55056 11.1019 8.7217 11.4862 9.64069C11.7368 10.2422 12.1044 11.0457 12.3217 11.4468C12.4553 11.6807 12.6057 11.8812 12.6057 11.9647C12.6057 12.0817 12.3885 12.2655 12.2047 12.5161C12.0877 12.6665 12.0376 12.7668 12.0376 12.8837C12.0376 12.984 12.1044 13.0842 12.2047 13.2179C12.3049 13.3516 12.4052 13.4852 12.5222 13.4852C12.6057 13.4852 12.6558 13.4518 12.706 13.385C13.2239 12.7333 13.792 12.2822 14.4452 11.9131C15.2138 11.4787 16.0006 11.2614 16.6189 11.1278C16.9196 11.0609 17.0032 10.9941 17.0032 10.827C17.0032 10.6265 16.8528 10.5095 16.6523 10.4928C16.5019 10.4761 16.3682 10.4928 16.1343 10.5095C15.9672 10.5263 15.8837 10.4427 15.7834 10.2255C15.4827 9.59056 14.8979 8.51967 14.547 7.14955C14.3966 6.56474 14.2629 5.94651 14.1794 5.14296C14.1292 4.77537 14.1961 4.6417 14.3799 4.47461C14.6138 4.2741 15.0315 4.19056 15.349 4.2741C15.7333 4.37436 15.9338 4.67512 16.1343 5.84626C16.2346 6.39765 16.4017 7.09942 16.6022 7.70246C16.8528 8.47107 17.1703 9.10752 17.6548 9.95967C17.9222 10.4275 18.2563 10.9121 18.6072 11.3814C18.5404 11.582 18.4234 11.7156 18.0391 12.0331C17.6548 12.3506 17.2705 12.6847 16.9196 13.303C16.669 13.7541 16.552 14.2554 16.552 14.5895C16.552 14.907 16.6189 14.9739 16.8194 14.9739C17.1703 14.9739 17.4543 14.907 17.471 14.7566C17.5546 14.1551 17.6548 13.7708 17.989 13.3182C18.1895 13.0675 18.5404 12.7501 18.8244 12.4994C19.3591 12.065 19.5429 11.8144 19.7267 11.1961C19.8103 10.9121 19.9105 10.6447 20.0442 10.3941C20.3617 9.80929 20.9298 9.14094 21.8168 9.14094C22.1009 9.14094 22.3348 9.22448 22.4852 9.45841C22.5687 9.59208 22.6022 9.77587 22.6022 9.90955C22.6022 10.2103 22.3849 10.628 22.2847 10.8285C21.9171 11.6139 21.3156 12.8184 21.3156 14.2052C21.3156 17.2311 20.2462 18.7364 19.4092 19.505C18.5905 20.2736 17.3024 20.9435 15.7819 20.9435C14.6958 20.9435 13.5748 20.626 12.6558 20.0245C11.3692 19.1723 10.5657 17.8341 9.74697 16.4974C9.09532 15.4113 8.64418 14.5576 7.94089 12.9035C7.54444 11.945 7.17532 11.0093 6.85785 9.99005Z" fill="#8D769B"/>
<path d="M11.1553 4.38972C11.1553 3.75478 11.7401 3.50415 12.2246 3.50415C12.7426 3.50415 12.9264 3.75478 13.0601 4.28947C13.177 4.7239 13.2272 5.12491 13.2773 5.59276C13.3441 6.06061 13.5781 7.13149 13.6449 7.39883C13.8955 8.31782 14.3968 9.40542 14.9983 10.7087C14.6474 10.8257 14.1796 11.0262 13.8621 11.1933C13.4611 11.4105 13.3776 11.4105 13.2105 11.093C12.8596 10.4414 12.6089 9.95681 12.3917 9.38719C12.2079 8.91934 12.0241 8.38466 11.8738 7.76491C11.6231 6.71225 11.5897 6.41149 11.3892 5.92542C11.2722 5.42567 11.1553 4.80744 11.1553 4.38972Z" fill="#8D769B"/>
<path d="M5.17052 15.5815C4.8166 15.8002 2.94065 16.783 2.51685 16.9394C2.21457 17.0519 1.88647 17.0245 1.69356 16.4534C1.4566 15.747 1.78926 15.58 2.26318 15.3962C2.68242 15.2336 4.42166 14.6048 4.82571 14.4954C5.10976 14.4194 5.30723 14.5151 5.44394 14.8569C5.59432 15.2321 5.49103 15.3825 5.17052 15.5815Z" fill="white"/>
<path d="M3.62394 11.6002C3.11964 11.6138 1.02495 11.5242 0.546473 11.4771C0.13027 11.4361 -0.0383376 11.2523 0.00723201 10.6493C0.0558396 10.0022 0.307992 9.96269 0.716599 10.0022C1.19052 10.0478 3.38546 10.4047 3.73483 10.5126C4.09635 10.625 4.14647 10.789 4.10242 11.105C4.04622 11.5151 3.8609 11.5926 3.62394 11.6002Z" fill="white"/>
<path d="M3.88389 7.35932C3.30667 7.17704 1.59325 6.13958 1.14667 5.87223C0.742621 5.6292 0.690976 5.41046 0.971988 4.8773C1.2211 4.40641 1.49756 4.32439 1.90768 4.53704C2.38313 4.78464 4.06161 6.09097 4.38211 6.3492C4.69199 6.59831 4.64946 6.72742 4.48692 7.04793C4.32439 7.36844 4.17249 7.45046 3.88389 7.35932Z" fill="white"/>
</svg>
